<?xml version="1.0" encoding="UTF-8" standalone="no"?>
<svg
   width="1000"
   height="1000"
   version="1.1"
   id="svg3"
   sodipodi:docname="logo.svg"
   xml:space="preserve"
   inkscape:export-filename="../dev/excalidraw-azure-devops/images/logos/logo_navbar_light_theme.png"
   inkscape:export-xdpi="12.288"
   inkscape:export-ydpi="12.288"
   inkscape:version="1.4.2 (ebf0e940, 2025-05-08)"
   xmlns:inkscape="http://www.inkscape.org/namespaces/inkscape"
   xmlns:sodipodi="http://sodipodi.sourceforge.net/DTD/sodipodi-0.dtd"
   xmlns="http://www.w3.org/2000/svg"
   xmlns:svg="http://www.w3.org/2000/svg"><defs
     id="defs3" /><sodipodi:namedview
     id="namedview3"
     pagecolor="#ffffff"
     bordercolor="#000000"
     borderopacity="0.25"
     inkscape:showpageshadow="2"
     inkscape:pageopacity="0.0"
     inkscape:pagecheckerboard="0"
     inkscape:deskcolor="#d1d1d1"
     inkscape:zoom="0.29670533"
     inkscape:cx="-52.240383"
     inkscape:cy="433.08963"
     inkscape:window-width="1512"
     inkscape:window-height="842"
     inkscape:window-x="0"
     inkscape:window-y="34"
     inkscape:window-maximized="0"
     inkscape:current-layer="svg3" /><path
     d="m 119.81,105.98 a 0.549,0.549 0 0 0 -0.53,-0.12 C 115.09,99.67 109.76,93.8 104.6,88.13 l -0.85,-0.93 c 0,-0.11 -0.05,-0.21 -0.12,-0.3 a 0.548,0.548 0 0 0 -0.34,-0.2 L 103.12,86.52 103,86.43 c -0.15,-0.32 -0.53,-0.56 -0.95,-0.35 -1.58,0.81 -3,1.97 -4.4,3.04 -1.87,1.43 -3.7,2.92 -5.42,4.52 -0.7,0.65 -1.39,1.33 -1.97,2.09 -0.28,0.37 -0.07,0.72 0.27,0.87 -1.22,1.2 -2.45,2.45 -3.68,3.74 -0.11,0.12 -0.17,0.28 -0.16,0.44 0.01,0.16 0.09,0.31 0.22,0.41 l 2.16,1.65 c 0,0 0.01,0.03 0.03,0.04 3.09,3.05 8.51,7.28 14.25,11.76 0.85,0.67 1.71,1.34 2.57,2.01 0.39,0.47 0.76,0.94 1.12,1.4 0.19,0.25 0.55,0.3 0.8,0.11 0.13,0.1 0.26,0.21 0.39,0.31 a 0.57,0.57 0 0 0 0.8,-0.1 c 0.07,-0.09 0.1,-0.2 0.11,-0.31 0.04,0 0.07,0.03 0.1,0.03 0.15,0 0.31,-0.06 0.42,-0.18 l 10.18,-11.12 a 0.56,0.56 0 0 0 -0.04,-0.8 z m -29.23,-3.85 c 0.07,0.09 0.14,0.17 0.21,0.25 1.16,0.98 2.4,2.04 3.66,3.12 l -5.12,-3.91 c 0,0 -0.32,-0.22 -0.52,-0.36 -0.11,-0.08 -0.21,-0.16 -0.31,-0.24 l -0.38,-0.32 c 0,0 0.07,-0.07 0.1,-0.11 l 0.35,-0.35 c 1.72,-1.74 4.67,-4.64 6.19,-6.06 -1.61,1.62 -4.87,6.37 -4.17,7.98 z m 17.53,13.81 -4.22,-3.22 c -1.65,-1.71 -3.43,-3.4 -5.24,-5.03 2.28,1.76 4.23,3.25 4.52,3.51 2.21,1.97 2.11,1.61 3.63,2.91 l 1.83,1.33 c -0.18,0.16 -0.36,0.33 -0.53,0.49 z m 1.06,0.81 -0.08,-0.06 c 0.16,-0.13 0.33,-0.25 0.49,-0.38 l -0.4,0.44 z M 42.24,51.45 c 0.14,0.72 0.27,1.43 0.4,2.11 0.69,3.7 1.33,7.03 2.55,9.56 l 0.48,1.92 c 0.19,0.73 0.46,1.64 0.71,1.83 2.85,2.52 7.22,6.28 11.89,9.82 0.21,0.16 0.5,0.15 0.7,-0.01 0.01,0.02 0.03,0.03 0.04,0.04 0.11,0.1 0.24,0.15 0.38,0.15 0.16,0 0.31,-0.06 0.42,-0.19 5.98,-6.65 10.43,-12.12 13.6,-16.7 0.2,-0.25 0.3,-0.54 0.29,-0.84 0.2,-0.24 0.41,-0.48 0.6,-0.68 A 0.558,0.558 0 0 0 74.2,57.6 0.578,0.578 0 0 0 74.03,57.24 C 72.64,55.9 71.61,54.93 70.57,53.96 68.73,52.24 66.83,50.46 62.8,46.45 62.78,46.43 62.75,46.41 62.73,46.39 a 0.555,0.555 0 0 0 -0.22,-0.14 c -1.11,-0.39 -3.39,-0.78 -6.26,-1.28 -4.22,-0.72 -10,-1.72 -15.2,-3.27 h -0.04 v -0.01 c 0,0 -0.02,0 -0.03,0.02 h -0.01 l 0.04,-0.02 c 0,0 -0.31,0.01 -0.37,0.04 -0.08,0.04 -0.14,0.09 -0.19,0.15 -0.05,0.06 -0.09,0.12 -0.47,0.2 -0.38,0.08 0.08,0 0.11,0 h -0.11 v 0.03 c 0.07,0.34 0.05,0.58 0.16,0.97 -0.02,0.1 0.21,1.02 0.24,1.11 l 1.83,7.26 z m 30.95,6.54 c 0,0 -0.03,0.04 -0.04,0.05 l -0.64,-0.71 c 0.22,0.21 0.44,0.42 0.68,0.66 z m -7.09,9.39 c 0,0 -0.07,0.08 -0.1,0.12 l -0.02,-0.02 c 0.04,-0.03 0.08,-0.07 0.13,-0.1 z m -7.07,8.47 z m 3.02,-28.57 c 0.35,0.35 1.74,1.65 2.06,1.97 -1.45,-0.66 -5.06,-2.34 -6.74,-2.88 1.65,0.29 3.93,0.66 4.68,0.91 z M 42.87,44.51 c 0.84,1.44 1.5,6.49 2.16,11.4 -0.37,-1.58 -0.69,-3.12 -0.99,-4.6 -0.52,-2.56 -1,-4.85 -1.67,-6.88 0.14,0.01 0.31,0.03 0.49,0.05 0,0.01 0,0.02 0.02,0.03 z M 42.58,43.3 c -0.23,-0.02 -0.44,-0.04 -0.62,-0.05 -0.02,-0.04 -0.03,-0.08 -0.04,-0.12 l 0.66,0.18 z m -2.22,0.45 v -0.02 z m 78.54,-1.18 c 0.04,-0.23 -1.1,-1.24 -0.74,-1.26 0.85,-0.04 0.86,-1.35 0,-1.31 -1.13,0.06 -2.27,0.32 -3.37,0.53 -1.98,0.37 -3.95,0.78 -5.92,1.21 -4.39,0.94 -8.77,1.93 -13.1,3.11 -1.36,0.37 -2.86,0.7 -4.11,1.36 -0.42,0.22 -0.4,0.67 -0.17,0.95 -0.09,0.05 -0.18,0.08 -0.28,0.09 -0.37,0.07 -0.74,0.13 -1.11,0.19 a 0.566,0.566 0 0 0 -0.39,0.86 c -2.32,3.1 -4.96,6.44 -7.82,9.95 -2.81,3.21 -5.73,6.63 -8.72,10.14 -9.41,11.06 -20.08,23.6 -31.9,34.64 -0.23,0.21 -0.24,0.57 -0.03,0.8 0.05,0.06 0.12,0.1 0.19,0.13 -0.16,0.15 -0.32,0.3 -0.48,0.44 -0.1,0.09 -0.14,0.2 -0.16,0.32 -0.08,0.08 -0.16,0.17 -0.23,0.25 -0.21,0.23 -0.2,0.59 0.03,0.8 0.23,0.21 0.59,0.2 0.8,-0.03 0.04,-0.04 0.08,-0.09 0.12,-0.13 a 0.84,0.84 0 0 1 1.22,0 c 0.69,0.74 1.34,1.44 1.95,2.09 l -1.38,-1.15 a 0.57,0.57 0 0 0 -0.8,0.07 c -0.2,0.24 -0.17,0.6 0.07,0.8 l 14.82,12.43 c 0.11,0.09 0.24,0.13 0.37,0.13 0.15,0 0.29,-0.06 0.4,-0.17 l 0.36,-0.36 a 0.56,0.56 0 0 0 0.63,-0.12 c 20.09,-20.18 36.27,-35.43 54.8,-49.06 0.17,-0.12 0.25,-0.32 0.23,-0.51 a 0.57,0.57 0 0 0 0.48,-0.39 c 3.42,-10.46 4.08,-19.72 4.28,-24.27 0,-0.03 0.01,-0.05 0.02,-0.07 0.02,-0.05 0.03,-0.1 0.04,-0.14 0.03,-0.11 0.05,-0.19 0.05,-0.19 0.26,-0.78 0.17,-1.53 -0.15,-2.15 z M 82.98,58.94 c 0.9,-1.03 1.79,-2.04 2.67,-3.02 -5.76,7.58 -15.3,19.26 -28.81,33.14 9.2,-10.18 18.47,-20.73 26.14,-30.12 z m -32.55,52.81 -0.03,-0.03 c 0.11,0.02 0.19,0.04 0.2,0.04 a 0.47,0.47 0 0 0 -0.17,0 z m 6.9,6.42 -0.05,-0.04 0.03,-0.03 c 0.02,0 0.03,0.02 0.04,0.02 0,0.02 -0.02,0.03 -0.03,0.05 z m 8.36,-7.21 1.38,-1.44 c 0.01,0.01 0.02,0.03 0.03,0.05 -0.47,0.46 -0.94,0.93 -1.42,1.39 z m 2.24,-2.21 c 0.26,-0.3 0.56,-0.65 0.87,-1.02 0.01,-0.01 0.02,-0.03 0.04,-0.04 3.29,-3.39 6.68,-6.82 10.18,-10.25 0.02,-0.02 0.05,-0.04 0.07,-0.06 0.86,-0.66 1.82,-1.39 2.72,-2.08 -4.52,4.32 -9.11,8.78 -13.88,13.46 z M 89.58,52.87 c -1.86,2.42 -3.9,5.56 -5.63,8.07 -5.46,7.91 -23.04,27.28 -23.43,27.65 -2.71,2.62 -10.88,10.46 -16.09,15.37 -0.14,0.13 -0.25,0.24 -0.34,0.35 a 0.794,0.794 0 0 1 0.03,-1.13 C 68.94,79.78 84,60.29 90.12,51.8 c -0.13,0.33 -0.24,0.69 -0.55,1.09 z m 16.51,7.1 -0.01,0.02 c 0,-0.02 -0.02,-0.07 0.01,-0.02 z m -0.91,-5.13 z m -5.89,9.45 c -2.26,-1.31 -3.32,-3.27 -2.71,-5.25 l 0.19,-0.66 c 0.08,-0.19 0.17,-0.38 0.28,-0.57 0.59,-0.98 1.49,-1.85 2.52,-2.36 0.05,-0.02 0.1,-0.03 0.15,-0.04 a 0.795,0.795 0 0 1 -0.04,-0.43 c 0.05,-0.31 0.25,-0.58 0.66,-0.58 0.67,0 2.75,0.62 3.54,1.3 0.24,0.19 0.47,0.4 0.68,0.63 0.3,0.35 0.74,0.92 0.96,1.33 0.13,0.06 0.23,0.62 0.38,0.91 0.14,0.46 0.2,0.93 0.18,1.4 0,0.02 0,0.02 0.01,0.03 -0.03,0.07 0,0.37 -0.04,0.4 -0.1,0.72 -0.36,1.43 -0.75,2.05 -0.04,0.05 -0.07,0.11 -0.11,0.16 0,0.01 -0.02,0.02 -0.03,0.04 -0.3,0.43 -0.65,0.83 -1.08,1.13 -1.26,0.89 -2.73,1.16 -4.2,0.79 a 6.33,6.33 0 0 1 -0.57,-0.25 z m 16.27,-1.63 c -0.49,2.05 -1.09,4.19 -1.8,6.38 -0.03,0.08 -0.03,0.16 -0.03,0.23 -0.1,0.01 -0.19,0.05 -0.27,0.11 -4.44,3.26 -8.73,6.62 -12.98,10.11 3.67,-3.32 7.39,-6.62 11.23,-9.95 a 6.409,6.409 0 0 0 2.11,-3.74 l 0.56,-3.37 0.03,-0.1 c 0.25,-0.71 1.34,-0.4 1.17,0.33 z"
     style="clip-rule:evenodd;display:none;fill:#6965db;fill-rule:nonzero;stroke-width:6;stroke-linejoin:round;stroke-miterlimit:2;stroke-dasharray:none"
     transform="matrix(9.3457944,0,0,9.3457944,-246.82243,-247.57009)"
     id="path2" /><path
     style="fill:none;stroke:#ffffff;stroke-width:50;stroke-linejoin:round;stroke-dasharray:none;stroke-opacity:1"
     d="M 144.09537,718.78788 C 301.9515,546.05958 481.7426,396.24493 613.33333,195.15152 c 80.9661,-13.43935 161.3085,-31.24452 240,-60.60607 C 831.81534,223.0303 827.98012,311.51515 821.81818,400 639.11329,539.71507 463.26169,698.61936 291.97415,870.30303 248.85668,822.88571 205.11817,775.15786 144.09537,718.78788 Z"
     id="path3"
     sodipodi:nodetypes="cccccc" /><path
     id="path4"
     style="fill:none;stroke:#ffffff;stroke-width:50;stroke-linejoin:round;stroke-opacity:1;stroke-dasharray:none"
     d="m 749.10463,307.69858 c 1.63309,23.15824 -13.51706,43.80495 -43.71205,41.99785 -21.96752,-1.31471 -46.21286,-19.74656 -43.71206,-41.99785 2.41353,-21.47477 22.1629,-43.22386 43.71206,-41.99786 22.98881,1.3079 42.24295,21.16512 43.71205,41.99786 z"
     sodipodi:nodetypes="sssss" /><path
     style="fill:none;stroke:#ffffff;stroke-width:50;stroke-linejoin:round;stroke-dasharray:none;stroke-opacity:1"
     d="m 290.56736,450.20073 c -30.54988,-31.0427 -69.75297,-63.52761 -113.99419,-96.8522 -4.33589,-71.61132 -24.5612,-144.66713 -53.99724,-218.56028 63.31784,19.07117 127.88078,35.65215 197.9899,41.14076 43.96457,33.83348 74.94657,70.26348 107.99449,106.28029 -46.99091,53.514 -99.20786,93.96289 -137.99296,167.99143 z"
     id="path5"
     sodipodi:nodetypes="cccccc" /><path
     style="fill:none;stroke:#ffffff;stroke-width:50;stroke-linejoin:round;stroke-dasharray:none;stroke-opacity:1"
     d="m 724.02508,587.74093 c 62.30508,55.70017 106.31835,120.54625 155.99204,182.56212 -46.39008,23.02693 -70.23223,63.59113 -96.8522,101.9948 C 720.42246,813.50646 655.60648,758.8621 586.03212,713.73451 638.74836,679.79896 682.65381,635.29045 724.02508,587.74093 Z"
     id="path6"
     sodipodi:nodetypes="ccccc" /></svg>
